# xmcd CD database file
#
# Track frame offsets:
#	150
#	22575
#	45650
#	65697
#	86100
#	108150
#	129310
#	148885
#	167437
#	191225
#	212375
#	231275
#	251887
#	272822
#
# Disc length: 3929 seconds
#
# Revision: 0
# Processed by: cddbd v1.5.1PL0 Copyright (c) Steve Scherf et al.
# Submitted via: CDex 1.51
#
DISCID=c50f570e
DTITLE=Various Artist - 802 Heavy Rotations J-Hits Complete '89-'92[CD2]
DYEAR=1900
DGENRE=J-Pop
TTITLE0=WITHOUT LOVE - PINK CLOUD
TTITLE1=北風 - 槇原敬之
TTITLE2=LOCH SENU - LANPA
TTITLE3=ニノウデの世界 - スピッツ
TTITLE4=誰もいないハート - 柿原朱美
TTITLE5=DEEP FRENCH KISS - オリジナル・ラブ
TTITLE6=SALSA〜私はピアノ - オルケスタ・デ・ラ・ルス
TTITLE7=DELIGHT OF LOVE - HUMAN SOUL.
TTITLE8=さよならいとしのBABY BLUES - 安藤秀樹
TTITLE9=SO COOL - 鈴木結女
TTITLE10=LOVE レクチャー - 麗美
TTITLE11=何も言えなくて（WINTER VERSION) - J-WALK
TTITLE12=EX LOVERS - THE PRIVATES
TTITLE13=HOLD ON - SING LIKE TALKING
EXTD=
EXTT0=
EXTT1=
EXTT2=
EXTT3=
EXTT4=
EXTT5=
EXTT6=
EXTT7=
EXTT8=
EXTT9=
EXTT10=
EXTT11=
EXTT12=
EXTT13=
PLAYORDER=
